<mxfile host="app.diagrams.net" modified="2023-11-15T05:58:08.707Z" agent="Mozilla/5.0 (Windows NT 10.0; Win64; x64) AppleWebKit/537.36 (KHTML, like Gecko) Chrome/119.0.0.0 Safari/537.36 Edg/119.0.0.0" etag="digwzQ7gb4d5jOvVKwNd" version="22.1.1" type="device">
  <diagram name="Pagina-1" id="EY7YrtUMqASE6_Cs5REi">
    <mxGraphModel dx="906" dy="2138" grid="1" gridSize="10" guides="1" tooltips="1" connect="1" arrows="1" fold="1" page="1" pageScale="1" pageWidth="827" pageHeight="1169" math="0" shadow="0">
      <root>
        <mxCell id="0" />
        <mxCell id="1" parent="0" />
        <mxCell id="gsbUIDOsFxr28R-C4O46-2" value="&lt;font style=&quot;font-size: 25px;&quot;&gt;Microservizio &quot;Magazzino&quot;&lt;/font&gt;" style="ellipse;whiteSpace=wrap;html=1;" vertex="1" parent="1">
          <mxGeometry x="1720" y="120" width="400" height="400" as="geometry" />
        </mxCell>
        <mxCell id="gsbUIDOsFxr28R-C4O46-3" value="" style="rounded=1;whiteSpace=wrap;html=1;fillColor=none;" vertex="1" parent="1">
          <mxGeometry x="1680" y="-240" width="480" height="160" as="geometry" />
        </mxCell>
        <mxCell id="gsbUIDOsFxr28R-C4O46-4" value="" style="rounded=1;whiteSpace=wrap;html=1;fillColor=none;rotation=-90;" vertex="1" parent="1">
          <mxGeometry x="1120.8" y="237.3" width="474.39" height="160" as="geometry" />
        </mxCell>
        <mxCell id="gsbUIDOsFxr28R-C4O46-5" value="&lt;font style=&quot;font-size: 20px;&quot;&gt;Attori&lt;/font&gt;" style="text;html=1;strokeColor=none;fillColor=none;align=center;verticalAlign=middle;whiteSpace=wrap;rounded=0;" vertex="1" parent="1">
          <mxGeometry x="1275.5" y="50" width="60" height="30" as="geometry" />
        </mxCell>
        <mxCell id="gsbUIDOsFxr28R-C4O46-6" value="&lt;font style=&quot;font-size: 20px;&quot;&gt;Dipendente&lt;/font&gt;" style="rounded=0;whiteSpace=wrap;html=1;" vertex="1" parent="1">
          <mxGeometry x="1293" y="100" width="130" height="234" as="geometry" />
        </mxCell>
        <mxCell id="gsbUIDOsFxr28R-C4O46-7" value="" style="endArrow=classic;html=1;rounded=0;" edge="1" parent="1">
          <mxGeometry width="50" height="50" relative="1" as="geometry">
            <mxPoint x="1480" y="194.52000000000004" as="sourcePoint" />
            <mxPoint x="1680" y="194.51999999999998" as="targetPoint" />
          </mxGeometry>
        </mxCell>
        <mxCell id="gsbUIDOsFxr28R-C4O46-8" value="&lt;font style=&quot;font-size: 15px;&quot;&gt;Aggiungi prodotto&lt;/font&gt;" style="edgeLabel;html=1;align=center;verticalAlign=middle;resizable=0;points=[];" vertex="1" connectable="0" parent="gsbUIDOsFxr28R-C4O46-7">
          <mxGeometry x="-0.0574" relative="1" as="geometry">
            <mxPoint as="offset" />
          </mxGeometry>
        </mxCell>
        <mxCell id="gsbUIDOsFxr28R-C4O46-9" value="" style="endArrow=none;html=1;rounded=0;startArrow=classic;startFill=1;endFill=0;" edge="1" parent="1">
          <mxGeometry width="50" height="50" relative="1" as="geometry">
            <mxPoint x="1740" y="-40" as="sourcePoint" />
            <mxPoint x="1740" y="80" as="targetPoint" />
          </mxGeometry>
        </mxCell>
        <mxCell id="gsbUIDOsFxr28R-C4O46-10" value="&lt;font style=&quot;font-size: 15px;&quot;&gt;Lista prodotti&lt;/font&gt;" style="edgeLabel;html=1;align=center;verticalAlign=middle;resizable=0;points=[];" vertex="1" connectable="0" parent="gsbUIDOsFxr28R-C4O46-9">
          <mxGeometry x="-0.0437" y="1" relative="1" as="geometry">
            <mxPoint x="1" y="43" as="offset" />
          </mxGeometry>
        </mxCell>
        <mxCell id="gsbUIDOsFxr28R-C4O46-11" value="" style="endArrow=classic;html=1;rounded=0;startArrow=none;startFill=0;endFill=1;" edge="1" parent="1">
          <mxGeometry width="50" height="50" relative="1" as="geometry">
            <mxPoint x="1900" y="-40" as="sourcePoint" />
            <mxPoint x="1900" y="80" as="targetPoint" />
          </mxGeometry>
        </mxCell>
        <mxCell id="gsbUIDOsFxr28R-C4O46-12" value="&lt;font style=&quot;font-size: 15px;&quot;&gt;Cerca prodotto&lt;/font&gt;" style="edgeLabel;html=1;align=center;verticalAlign=middle;resizable=0;points=[];" vertex="1" connectable="0" parent="gsbUIDOsFxr28R-C4O46-11">
          <mxGeometry x="-0.0437" y="1" relative="1" as="geometry">
            <mxPoint x="-1" y="-37" as="offset" />
          </mxGeometry>
        </mxCell>
        <mxCell id="gsbUIDOsFxr28R-C4O46-13" value="" style="endArrow=classic;html=1;rounded=0;startArrow=none;startFill=0;endFill=1;" edge="1" parent="1">
          <mxGeometry width="50" height="50" relative="1" as="geometry">
            <mxPoint x="1824.96" y="-40" as="sourcePoint" />
            <mxPoint x="1824.71" y="80" as="targetPoint" />
          </mxGeometry>
        </mxCell>
        <mxCell id="gsbUIDOsFxr28R-C4O46-14" value="&lt;font style=&quot;font-size: 15px;&quot;&gt;Rimuovi prodotto&lt;/font&gt;" style="edgeLabel;html=1;align=center;verticalAlign=middle;resizable=0;points=[];" vertex="1" connectable="0" parent="gsbUIDOsFxr28R-C4O46-13">
          <mxGeometry x="-0.0437" y="1" relative="1" as="geometry">
            <mxPoint as="offset" />
          </mxGeometry>
        </mxCell>
        <mxCell id="gsbUIDOsFxr28R-C4O46-16" value="" style="endArrow=classic;html=1;rounded=0;" edge="1" parent="1">
          <mxGeometry width="50" height="50" relative="1" as="geometry">
            <mxPoint x="1480" y="233.56000000000003" as="sourcePoint" />
            <mxPoint x="1680" y="234.52" as="targetPoint" />
          </mxGeometry>
        </mxCell>
        <mxCell id="gsbUIDOsFxr28R-C4O46-17" value="&lt;font style=&quot;font-size: 15px;&quot;&gt;Cerca prodotti&lt;br&gt;&lt;/font&gt;" style="edgeLabel;html=1;align=center;verticalAlign=middle;resizable=0;points=[];" vertex="1" connectable="0" parent="gsbUIDOsFxr28R-C4O46-16">
          <mxGeometry x="-0.0574" relative="1" as="geometry">
            <mxPoint as="offset" />
          </mxGeometry>
        </mxCell>
        <mxCell id="gsbUIDOsFxr28R-C4O46-18" value="" style="endArrow=none;html=1;rounded=0;startArrow=classic;startFill=1;endFill=0;" edge="1" parent="1">
          <mxGeometry width="50" height="50" relative="1" as="geometry">
            <mxPoint x="1480" y="276.52" as="sourcePoint" />
            <mxPoint x="1680" y="277.48" as="targetPoint" />
          </mxGeometry>
        </mxCell>
        <mxCell id="gsbUIDOsFxr28R-C4O46-19" value="&lt;font style=&quot;font-size: 15px;&quot;&gt;Lista prodotti&lt;br&gt;&lt;/font&gt;" style="edgeLabel;html=1;align=center;verticalAlign=middle;resizable=0;points=[];" vertex="1" connectable="0" parent="gsbUIDOsFxr28R-C4O46-18">
          <mxGeometry x="-0.0574" relative="1" as="geometry">
            <mxPoint as="offset" />
          </mxGeometry>
        </mxCell>
        <mxCell id="gsbUIDOsFxr28R-C4O46-20" value="&lt;font style=&quot;font-size: 20px;&quot;&gt;Manager&lt;br&gt;&lt;/font&gt;" style="rounded=0;whiteSpace=wrap;html=1;" vertex="1" parent="1">
          <mxGeometry x="1293" y="354" width="130" height="186" as="geometry" />
        </mxCell>
        <mxCell id="gsbUIDOsFxr28R-C4O46-25" value="" style="rounded=1;whiteSpace=wrap;html=1;fillColor=none;rotation=-90;" vertex="1" parent="1">
          <mxGeometry x="2240" y="238" width="480" height="160" as="geometry" />
        </mxCell>
        <mxCell id="gsbUIDOsFxr28R-C4O46-26" value="&lt;font style=&quot;font-size: 20px;&quot;&gt;Database&lt;/font&gt;" style="shape=cylinder3;whiteSpace=wrap;html=1;boundedLbl=1;backgroundOutline=1;size=15;" vertex="1" parent="1">
          <mxGeometry x="2425" y="198" width="110" height="240" as="geometry" />
        </mxCell>
        <mxCell id="gsbUIDOsFxr28R-C4O46-27" value="" style="endArrow=classic;html=1;rounded=0;" edge="1" parent="1">
          <mxGeometry width="50" height="50" relative="1" as="geometry">
            <mxPoint x="2160" y="240.69000000000005" as="sourcePoint" />
            <mxPoint x="2360" y="240" as="targetPoint" />
          </mxGeometry>
        </mxCell>
        <mxCell id="gsbUIDOsFxr28R-C4O46-28" value="&lt;font style=&quot;font-size: 15px;&quot;&gt;Aggiungi prodotto&lt;br&gt;&lt;/font&gt;" style="edgeLabel;html=1;align=center;verticalAlign=middle;resizable=0;points=[];" vertex="1" connectable="0" parent="gsbUIDOsFxr28R-C4O46-27">
          <mxGeometry x="-0.0574" relative="1" as="geometry">
            <mxPoint as="offset" />
          </mxGeometry>
        </mxCell>
        <mxCell id="gsbUIDOsFxr28R-C4O46-29" value="" style="endArrow=classic;html=1;rounded=0;" edge="1" parent="1">
          <mxGeometry width="50" height="50" relative="1" as="geometry">
            <mxPoint x="2160" y="320.35000000000014" as="sourcePoint" />
            <mxPoint x="2360" y="320" as="targetPoint" />
          </mxGeometry>
        </mxCell>
        <mxCell id="gsbUIDOsFxr28R-C4O46-30" value="&lt;font style=&quot;font-size: 15px;&quot;&gt;Rimuovi prodotto&lt;br&gt;&lt;/font&gt;" style="edgeLabel;html=1;align=center;verticalAlign=middle;resizable=0;points=[];" vertex="1" connectable="0" parent="gsbUIDOsFxr28R-C4O46-29">
          <mxGeometry x="-0.0574" relative="1" as="geometry">
            <mxPoint as="offset" />
          </mxGeometry>
        </mxCell>
        <mxCell id="gsbUIDOsFxr28R-C4O46-31" value="" style="endArrow=none;html=1;rounded=0;startArrow=classic;startFill=1;endFill=0;" edge="1" parent="1">
          <mxGeometry width="50" height="50" relative="1" as="geometry">
            <mxPoint x="2160" y="400.6900000000001" as="sourcePoint" />
            <mxPoint x="2360" y="400" as="targetPoint" />
          </mxGeometry>
        </mxCell>
        <mxCell id="gsbUIDOsFxr28R-C4O46-32" value="&lt;font style=&quot;font-size: 15px;&quot;&gt;Lista prodotti&lt;br&gt;&lt;/font&gt;" style="edgeLabel;html=1;align=center;verticalAlign=middle;resizable=0;points=[];" vertex="1" connectable="0" parent="gsbUIDOsFxr28R-C4O46-31">
          <mxGeometry x="-0.0574" relative="1" as="geometry">
            <mxPoint as="offset" />
          </mxGeometry>
        </mxCell>
        <mxCell id="gsbUIDOsFxr28R-C4O46-42" value="&lt;font style=&quot;font-size: 20px;&quot;&gt;Microservizio &quot;Negozio&quot;&lt;/font&gt;" style="rounded=0;whiteSpace=wrap;html=1;" vertex="1" parent="1">
          <mxGeometry x="1690" y="-230" width="270" height="140" as="geometry" />
        </mxCell>
        <mxCell id="gsbUIDOsFxr28R-C4O46-43" value="&lt;span style=&quot;font-size: 20px;&quot;&gt;Microservizio &quot;Autenticazione&quot;&lt;/span&gt;" style="rounded=0;whiteSpace=wrap;html=1;" vertex="1" parent="1">
          <mxGeometry x="1980" y="-230" width="170" height="140" as="geometry" />
        </mxCell>
        <mxCell id="gsbUIDOsFxr28R-C4O46-44" value="" style="endArrow=classic;html=1;rounded=0;startArrow=classic;startFill=1;endFill=1;" edge="1" parent="1">
          <mxGeometry width="50" height="50" relative="1" as="geometry">
            <mxPoint x="2068" y="-40" as="sourcePoint" />
            <mxPoint x="2068" y="80" as="targetPoint" />
          </mxGeometry>
        </mxCell>
        <mxCell id="gsbUIDOsFxr28R-C4O46-45" value="&lt;span style=&quot;font-size: 15px;&quot;&gt;Identifica utente&lt;/span&gt;" style="edgeLabel;html=1;align=center;verticalAlign=middle;resizable=0;points=[];" vertex="1" connectable="0" parent="gsbUIDOsFxr28R-C4O46-44">
          <mxGeometry x="-0.0437" y="1" relative="1" as="geometry">
            <mxPoint y="3" as="offset" />
          </mxGeometry>
        </mxCell>
        <mxCell id="gsbUIDOsFxr28R-C4O46-51" value="&lt;font style=&quot;font-size: 20px;&quot;&gt;Subordinati&lt;/font&gt;" style="text;html=1;strokeColor=none;fillColor=none;align=center;verticalAlign=middle;whiteSpace=wrap;rounded=0;" vertex="1" parent="1">
          <mxGeometry x="2390" y="50" width="130" height="30" as="geometry" />
        </mxCell>
        <mxCell id="gsbUIDOsFxr28R-C4O46-52" value="&lt;font style=&quot;font-size: 20px;&quot;&gt;Attori&lt;/font&gt;" style="text;html=1;strokeColor=none;fillColor=none;align=center;verticalAlign=middle;whiteSpace=wrap;rounded=0;" vertex="1" parent="1">
          <mxGeometry x="1640" y="-270" width="130" height="30" as="geometry" />
        </mxCell>
        <mxCell id="gsbUIDOsFxr28R-C4O46-54" value="" style="endArrow=classic;html=1;rounded=0;" edge="1" parent="1">
          <mxGeometry width="50" height="50" relative="1" as="geometry">
            <mxPoint x="1480" y="156.52" as="sourcePoint" />
            <mxPoint x="1680" y="156.52" as="targetPoint" />
          </mxGeometry>
        </mxCell>
        <mxCell id="gsbUIDOsFxr28R-C4O46-55" value="&lt;font style=&quot;font-size: 15px;&quot;&gt;Rimuovi prodotto&lt;/font&gt;" style="edgeLabel;html=1;align=center;verticalAlign=middle;resizable=0;points=[];" vertex="1" connectable="0" parent="gsbUIDOsFxr28R-C4O46-54">
          <mxGeometry x="-0.0574" relative="1" as="geometry">
            <mxPoint as="offset" />
          </mxGeometry>
        </mxCell>
        <mxCell id="gsbUIDOsFxr28R-C4O46-56" value="" style="endArrow=classic;html=1;rounded=0;" edge="1" parent="1">
          <mxGeometry width="50" height="50" relative="1" as="geometry">
            <mxPoint x="1480" y="424.52000000000004" as="sourcePoint" />
            <mxPoint x="1680" y="424.52" as="targetPoint" />
          </mxGeometry>
        </mxCell>
        <mxCell id="gsbUIDOsFxr28R-C4O46-57" value="&lt;font style=&quot;font-size: 15px;&quot;&gt;Aggiungi prodotto&lt;/font&gt;" style="edgeLabel;html=1;align=center;verticalAlign=middle;resizable=0;points=[];" vertex="1" connectable="0" parent="gsbUIDOsFxr28R-C4O46-56">
          <mxGeometry x="-0.0574" relative="1" as="geometry">
            <mxPoint as="offset" />
          </mxGeometry>
        </mxCell>
        <mxCell id="gsbUIDOsFxr28R-C4O46-58" value="" style="endArrow=classic;html=1;rounded=0;" edge="1" parent="1">
          <mxGeometry width="50" height="50" relative="1" as="geometry">
            <mxPoint x="1480" y="463.56000000000006" as="sourcePoint" />
            <mxPoint x="1680" y="464.52" as="targetPoint" />
          </mxGeometry>
        </mxCell>
        <mxCell id="gsbUIDOsFxr28R-C4O46-59" value="&lt;font style=&quot;font-size: 15px;&quot;&gt;Cerca prodotti&lt;br&gt;&lt;/font&gt;" style="edgeLabel;html=1;align=center;verticalAlign=middle;resizable=0;points=[];" vertex="1" connectable="0" parent="gsbUIDOsFxr28R-C4O46-58">
          <mxGeometry x="-0.0574" relative="1" as="geometry">
            <mxPoint as="offset" />
          </mxGeometry>
        </mxCell>
        <mxCell id="gsbUIDOsFxr28R-C4O46-60" value="" style="endArrow=none;html=1;rounded=0;startArrow=classic;startFill=1;endFill=0;" edge="1" parent="1">
          <mxGeometry width="50" height="50" relative="1" as="geometry">
            <mxPoint x="1480" y="506.52" as="sourcePoint" />
            <mxPoint x="1680" y="507.48" as="targetPoint" />
          </mxGeometry>
        </mxCell>
        <mxCell id="gsbUIDOsFxr28R-C4O46-61" value="&lt;font style=&quot;font-size: 15px;&quot;&gt;Lista prodotti&lt;br&gt;&lt;/font&gt;" style="edgeLabel;html=1;align=center;verticalAlign=middle;resizable=0;points=[];" vertex="1" connectable="0" parent="gsbUIDOsFxr28R-C4O46-60">
          <mxGeometry x="-0.0574" relative="1" as="geometry">
            <mxPoint as="offset" />
          </mxGeometry>
        </mxCell>
        <mxCell id="gsbUIDOsFxr28R-C4O46-62" value="" style="endArrow=classic;html=1;rounded=0;" edge="1" parent="1">
          <mxGeometry width="50" height="50" relative="1" as="geometry">
            <mxPoint x="1480" y="386.52" as="sourcePoint" />
            <mxPoint x="1680" y="386.52" as="targetPoint" />
          </mxGeometry>
        </mxCell>
        <mxCell id="gsbUIDOsFxr28R-C4O46-63" value="&lt;font style=&quot;font-size: 15px;&quot;&gt;Rimuovi prodotto&lt;/font&gt;" style="edgeLabel;html=1;align=center;verticalAlign=middle;resizable=0;points=[];" vertex="1" connectable="0" parent="gsbUIDOsFxr28R-C4O46-62">
          <mxGeometry x="-0.0574" relative="1" as="geometry">
            <mxPoint as="offset" />
          </mxGeometry>
        </mxCell>
      </root>
    </mxGraphModel>
  </diagram>
</mxfile>
